<?xml version="1.0" encoding="iso-8859-1"?>
<!-- Generator: Adobe Illustrator 19.0.0, SVG Export Plug-In . SVG Version: 6.00 Build 0)  -->
<svg version="1.1" id="Capa_1" xmlns="http://www.w3.org/2000/svg" xmlns:xlink="http://www.w3.org/1999/xlink" x="0px" y="0px"
	 viewBox="0 0 512.002 512.002" style="enable-background:new 0 0 512.002 512.002;" xml:space="preserve">
<g>
	<g>
		<g>
			<path d="M323.115,342.407l7.855-7.855c2.928-2.929,2.928-7.678-0.001-10.606c-2.928-2.928-7.677-2.929-10.607,0.001l-7.853,7.854
				l-7.854-7.854c-2.929-2.93-7.678-2.929-10.607-0.001c-2.93,2.929-2.93,7.678-0.001,10.606l7.855,7.855l-7.855,7.855
				c-2.929,2.929-2.929,7.678,0.001,10.606c1.464,1.464,3.384,2.196,5.303,2.196s3.839-0.732,5.304-2.197l7.854-7.854l7.853,7.854
				c1.465,1.465,3.384,2.197,5.304,2.197c1.919,0,3.839-0.732,5.303-2.196c2.93-2.929,2.93-7.678,0.001-10.606L323.115,342.407z"/>
			<path d="M157.511,170.113c1.465,1.464,3.385,2.196,5.304,2.196s3.839-0.732,5.304-2.196l7.854-7.854l7.854,7.854
				c1.465,1.464,3.385,2.196,5.304,2.196s3.839-0.732,5.304-2.196c2.929-2.93,2.929-7.678,0-10.607l-7.854-7.854l7.854-7.854
				c2.929-2.93,2.929-7.678,0-10.607c-2.93-2.928-7.678-2.928-10.607,0l-7.854,7.854l-7.854-7.854c-2.93-2.928-7.678-2.928-10.607,0
				c-2.929,2.93-2.929,7.678,0,10.607l7.854,7.854l-7.854,7.854C154.582,162.435,154.582,167.183,157.511,170.113z"/>
			<path d="M308.864,146.058c1.615,3.814,6.016,5.595,9.831,3.981c51.294-21.72,102.54-35.694,152.317-41.536
				c3.862-0.448,5.75,2.313,6.235,3.173c0.49,0.865,1.901,3.93-0.497,7.033l-11.698,15.14c-5.331,6.899-7.497,15.776-5.942,24.355
				c1.556,8.578,6.699,16.13,14.112,20.718l14.774,9.146c4.975,3.079,8.21,8.179,8.877,13.991c0.667,5.813-1.33,11.511-5.478,15.637
				l-17.442,17.349c-7.29,7.25-10.05,17.896-7.201,27.781c0.947,3.286,3.946,5.425,7.203,5.425c0.688,0,1.388-0.096,2.081-0.295
				c3.979-1.147,6.276-5.304,5.13-9.284c-1.333-4.624-0.044-9.601,3.365-12.992l17.441-17.348
				c7.424-7.382,10.997-17.581,9.804-27.981c-1.192-10.401-6.982-19.526-15.885-25.036l-14.774-9.145
				c-3.863-2.392-6.437-6.17-7.247-10.64c-0.811-4.471,0.273-8.912,3.052-12.508l11.698-15.14
				c5.353-6.927,5.998-15.967,1.684-23.592c-4.307-7.609-12.375-11.7-21.04-10.685c-51.189,6.009-103.814,20.349-156.418,42.622
				C309.032,137.842,307.249,142.244,308.864,146.058z"/>
			<path d="M294.048,112.518c1.465,1.464,3.385,2.196,5.304,2.196c1.919,0,3.839-0.732,5.304-2.196l7.854-7.854l7.853,7.854
				c1.465,1.464,3.385,2.196,5.304,2.196s3.839-0.732,5.304-2.196c2.929-2.93,2.929-7.678,0-10.607l-7.853-7.854l7.853-7.854
				c2.929-2.93,2.929-7.678,0-10.607c-2.93-2.928-7.678-2.928-10.607,0l-7.853,7.854l-7.854-7.854c-2.93-2.928-7.678-2.928-10.607,0
				c-2.929,2.93-2.929,7.678,0,10.607l7.853,7.854l-7.853,7.854C291.119,104.84,291.119,109.588,294.048,112.518z"/>
			<path d="M430.615,362.633l7.854-7.854c2.928-2.928,2.928-7.677,0-10.606c-2.93-2.929-7.679-2.93-10.607-0.001l-7.855,7.855
				l-7.855-7.855c-2.928-2.928-7.677-2.929-10.606,0.001c-2.929,2.929-2.929,7.678,0.001,10.606l7.854,7.854l-7.854,7.854
				c-2.93,2.929-2.93,7.678-0.001,10.606c1.465,1.465,3.384,2.197,5.304,2.197c1.919,0,3.839-0.732,5.303-2.196l7.855-7.855
				l7.855,7.855c1.464,1.464,3.384,2.196,5.303,2.196s3.839-0.732,5.304-2.197c2.929-2.929,2.929-7.678-0.001-10.606
				L430.615,362.633z"/>
			<path d="M132.968,298.641c2.873,0,5.755-0.497,8.515-1.501c6.769-2.464,12.139-7.738,14.733-14.471
				c1.49-3.865-0.436-8.206-4.301-9.695c-3.866-1.49-8.207,0.436-9.695,4.301c-1.035,2.686-3.174,4.789-5.868,5.77
				c-2.693,0.98-5.684,0.744-8.202-0.648c-3.629-2.005-8.189-0.688-10.192,2.937c-2.003,3.626-0.688,8.188,2.937,10.192
				C124.635,297.592,128.792,298.641,132.968,298.641z"/>
			<path d="M183.581,274.577c0.852,0,1.718-0.146,2.564-0.454c3.893-1.417,5.899-5.721,4.482-9.613l-2.83-7.774
				c-1.418-3.893-5.72-5.896-9.613-4.482c-3.893,1.417-5.899,5.721-4.482,9.613l2.83,7.774
				C177.642,272.686,180.517,274.577,183.581,274.577z"/>
			<path d="M92.473,308.216c3.892-1.416,5.899-5.72,4.483-9.612l-2.829-7.775c-1.417-3.892-5.717-5.901-9.612-4.483
				c-3.893,1.416-5.899,5.72-4.483,9.612l2.829,7.775c1.108,3.046,3.984,4.938,7.049,4.938
				C90.76,308.67,91.626,308.524,92.473,308.216z"/>
			<path d="M492.576,281.664c-3.781,1.693-5.474,6.13-3.781,9.91c1.372,3.064,0.267,6.127-1.226,7.971
				c-1.095,1.35-3.544,3.491-7.611,2.618c-30.877-6.609-136.605-26.635-235.365-15.24l7.39-23.335
				c60.383-13.303,122.964-13.964,154.344-7.596c4.058,0.824,8.019-1.798,8.842-5.857c0.824-4.06-1.798-8.019-5.857-8.842
				c-40.741-8.273-104.615-3.498-152.135,5.897l2.659-8.395c2.269-7.161,1.612-14.831-1.66-21.424
				c27.654-12.379,74.595-30.538,124.963-37.527c4.103-0.569,6.967-4.356,6.397-8.46c-0.569-4.103-4.358-6.973-8.46-6.398
				c-54.993,7.631-105.822,28.025-133.516,40.729c-4.985-3.079-10.862-4.608-16.881-4.24l-10.717,0.67
				c16.862-10.874,38.474-23.599,64.291-36.331c3.715-1.832,5.241-6.329,3.409-10.044c-1.832-3.715-6.328-5.243-10.044-3.409
				c-38.982,19.224-68.643,38.467-87.134,51.626l-13.475,0.842c-4.598,0.285-9.182-1.029-12.923-3.706l-43.737-31.285
				c-7.705-5.51-17.619-6.864-26.521-3.626c-8.9,3.239-15.624,10.651-17.983,19.825L62.45,238.116
				c-1.146,4.456-3.815,8.414-7.518,11.144l-43.27,31.93c-7.622,5.625-11.975,14.636-11.644,24.102
				c0.331,9.467,5.303,18.15,13.298,23.23l45.392,28.834c3.883,2.466,6.821,6.228,8.276,10.592l4.563,13.701
				c1.309,3.93,5.554,6.059,9.485,4.745c3.93-1.309,6.055-5.556,4.745-9.485l-4.563-13.702c-2.542-7.629-7.68-14.203-14.465-18.513
				l-45.391-28.833c-3.875-2.461-6.189-6.504-6.35-11.092c-0.16-4.588,1.866-8.782,5.56-11.508l43.269-31.93
				c6.471-4.773,11.137-11.69,13.14-19.479l13.396-52.079c1.144-4.446,4.273-7.896,8.587-9.467c4.315-1.57,8.929-0.939,12.663,1.732
				l43.737,31.284c6.539,4.679,14.559,6.977,22.585,6.477l53.67-3.354c4.574-0.28,8.829,1.623,11.656,5.241
				c2.827,3.617,3.652,8.202,2.266,12.579L229.3,285.531c-2.43,7.665-2.138,16.005,0.819,23.48l19.774,50.008
				c1.688,4.269,1.185,8.899-1.383,12.705c-2.567,3.806-6.672,6.008-11.263,6.042l-53.773,0.398
				c-8.039,0.06-15.88,2.914-22.078,8.036l-41.449,34.26c-3.537,2.926-8.098,3.878-12.511,2.611
				c-4.413-1.266-7.775-4.489-9.227-8.847l-1.61-4.831c-1.311-3.93-5.556-6.052-9.487-4.743c-3.929,1.31-6.053,5.558-4.743,9.487
				l1.61,4.829c2.993,8.987,10.217,15.912,19.322,18.523c2.606,0.747,5.271,1.113,7.916,1.113c6.594,0,13.075-2.275,18.286-6.581
				l41.449-34.26c3.547-2.932,8.033-4.564,12.633-4.599l53.773-0.398c9.473-0.07,18.29-4.801,23.587-12.654
				c5.297-7.853,6.38-17.8,2.896-26.608l-19.775-50.009c-0.175-0.443-0.324-0.894-0.466-1.346
				c97.215-11.835,202.63,8.136,233.217,14.683c1.682,0.36,3.354,0.536,5.001,0.536c6.744,0,13.021-2.961,17.41-8.387
				c5.478-6.768,6.726-15.787,3.256-23.535C500.793,281.663,496.355,279.973,492.576,281.664z"/>
		</g>
	</g>
</g>
<g>
</g>
<g>
</g>
<g>
</g>
<g>
</g>
<g>
</g>
<g>
</g>
<g>
</g>
<g>
</g>
<g>
</g>
<g>
</g>
<g>
</g>
<g>
</g>
<g>
</g>
<g>
</g>
<g>
</g>
</svg>
